<svg viewBox="0 0 504.56 812" xmlns="http://www.w3.org/2000/svg">
 <defs>
  <style>.cls-1{fill:#fff;}.cls-2{fill:#242021;}.cls-3{fill:#59ab42;}.cls-4{fill:#fcfcfc;}</style>
 </defs>
 <title>Icono - Logo Metro 01</title>
 <g id="Capa_2" data-name="Capa 2">
  <g id="Capa_1-2" data-name="Capa 1">
   <rect class="cls-1" width="504.56" height="812"/>
   <rect class="cls-1" width="478.51" y="5.04" height="486.66" x="8.99"/>
   <path class="cls-2" d="M8.87,6a37.72,37.72,0,0,1,6-.91H439.76c18.32.06,36.65-.13,54.95.1-.21,114.29,0,228.58-.09,342.88.06,47.89-.12,95.78.09,143.67q-170.43.17-340.87.05c-38.08.13-76.16-.26-114.25-.11,11.4-.64,22.82-.1,34.23-.4,7-.34,14.41,1.17,21.06-1.71q57.29-21.75,114.73-43.08c52.69-20,105.55-39.62,158.31-59.47a30.92,30.92,0,0,0,15.67-14.16c4.65-8.8,4-19.85-1.17-28.29l-.18-.37a25.07,25.07,0,0,0,2.87-5.77q.43-1.67,1-3.27a49.62,49.62,0,0,0,0-11.23c-2.19-9-8.35-17.42-17.25-20.74-19.79-7.48-39.44-15.29-59.18-22.9-2.91-1.11-5.82-2.21-8.69-3.42-1.42-.53-2.84-1.07-4.26-1.57l-3.67-1.48c-3.13-1.14-6.22-2.4-9.33-3.59q-4.35-1.68-8.67-3.4-2.16-.78-4.29-1.62L267,264l.82-.32c33.61-13.59,67.62-26.15,101.29-39.58a28.8,28.8,0,0,0,13.36-41.9l-.11-.22a34.18,34.18,0,0,0,3.75-8.95c.88-6.4.49-13.17-2.7-18.92A30.29,30.29,0,0,0,369,140.72c-1.44-.48-2.87-1-4.3-1.5-2.6-1.05-5.23-2-7.87-2.93Q308.44,118,260,99.83c-1.44-.53-2.86-1.08-4.3-1.6C242.13,93.05,228.51,88,214.93,82.88c-15.78-5.79-31.42-11.94-47.2-17.74-1.23-.49-2.47-1-3.7-1.44-1.69-.6-3.37-1.21-5-1.86-1.42-.54-2.84-1.09-4.26-1.62L151,58.79c-6.8-2.45-13.53-5.09-20.34-7.52-1.24-.5-2.49-1-3.73-1.47-1.42-.51-2.84-1-4.26-1.57q-44-16.59-88-33.14c-1.66-.63-3.33-1.26-5-1.86L26,11.81C20.24,10,14.8,7.14,8.87,6Z"/>
   <path class="cls-3" d="M9.19,66.35c58,22.24,116.31,43.76,174.38,65.86,23.32,8.68,46.58,17.52,69.89,26.23a9.51,9.51,0,0,1,6.91,7.4c.69,4.38-2.51,8.67-6.62,9.95-6.12,2.23-12.16,4.66-18.32,6.77-1.26-2-3.74-2.26-5.88-2.39C185.34,163.29,140.91,147,96.73,130.06,68.09,119.34,39.42,108.67,10.85,97.8L9,97c-.16-10.2-.5-20.46.18-30.64Z"/>
   <path class="cls-2" d="M8.79,98.84l2.06-1c28.57,10.87,57.24,21.54,85.88,32.26,44.18,16.95,88.61,33.23,132.82,50.11a14.61,14.61,0,0,1,5.22,2.77c-3.77,1.1-7.4,2.6-11.1,3.91-2.62,1-5.27,2-7.91,3-16,6-32,12.06-48.09,18-11.34,4.22-22.66,8.49-34,12.69-9.43,3.71-15.93,12.69-18.08,22.41a53.67,53.67,0,0,0,0,11.12,45.8,45.8,0,0,0,3.55,9.47,30.37,30.37,0,0,0-.13,30.41,34.45,34.45,0,0,0,8.91,9.91c3.89,3,8.68,4.24,13.18,5.94,31.51,11.77,63,23.55,94.62,35.08-7,2.77-14,5.3-21,7.94-1.24.49-2.49.95-3.73,1.44-1.68.6-3.33,1.23-5,1.89-7.78,2.86-15.52,5.81-23.29,8.69-1.24.49-2.48.95-3.72,1.43-1.42.51-2.83,1.05-4.24,1.57q-24.48,9.19-48.92,18.49c-1.4.48-2.79,1-4.19,1.47-1.24.51-2.49,1-3.73,1.53-1.42.47-2.83,1-4.25,1.44-1.22.48-2.44,1-3.66,1.46-6.81,2.48-13.56,5.12-20.38,7.59L86,401.24c-1.44.5-2.86,1-4.29,1.57-1.22.47-2.45.93-3.67,1.43-20.11,7.43-40.09,15.2-60.21,22.59a58.69,58.69,0,0,1-8.91,3Q8.78,270.9,8.84,112c0-4.1.08-8.2-.12-12.3l.07-.84Z"/>
   <path class="cls-3" d="M368.66,193.63c5.69-2.23,10.21-6.54,13.77-11.4a28.8,28.8,0,0,1-13.36,41.9c-33.67,13.43-67.68,26-101.29,39.58-6.74-1.55-13.06-4.8-19.54-7.22-6.85-2.52-6.91-13.47,0-15.94Q308.41,217,368.66,193.63Z"/>
   <path class="cls-3" d="M119.14,263.52c3.61,5.27,8.15,10.26,14.18,12.73,39.46,14.63,78.88,29.38,118.37,43.94a22.2,22.2,0,0,1,6,2.93,8.69,8.69,0,0,1,.62,12.38c-1.89,2.13-4.83,2.69-7.35,3.74-5.12,1.78-10.05,4.12-15.25,5.62-31.6-11.53-63.11-23.31-94.62-35.08-4.5-1.7-9.29-3-13.18-5.94a34.45,34.45,0,0,1-8.91-9.91,30.37,30.37,0,0,1,.13-30.41Z"/>
   <path class="cls-3" d="M368.87,355.91c5.7-2.15,9.88-6.72,13.55-11.39,5.12,8.44,5.82,19.49,1.17,28.29A30.92,30.92,0,0,1,367.92,387c-52.76,19.85-105.62,39.43-158.31,59.47q-57.42,21.39-114.73,43.08c-6.65,2.88-14,1.37-21.06,1.71-11.41.3-22.83-.24-34.23.4-10.14.46-20.33-.5-30.43.76L9,490.84c13.07-4.22,25.77-9.57,38.69-14.22q160.58-60.39,321.18-120.71Z"/>
   <path class="cls-2" d="M11.48,518.58q241.65.12,483.28,0,.15,91.95,0,183.91-241.65-.12-483.29,0,0-91.95,0-183.92Z"/>
   <path class="cls-4" d="M409.39,539.73c11.33-2.22,23.62-1.38,34,4a35.93,35.93,0,0,1,17.75,21.69,52.53,52.53,0,0,1,1.1,22.49A36.75,36.75,0,0,1,443.85,614c-11.22,6-24.75,6.69-36.94,3.67-10.86-2.74-20.47-10.46-24.83-20.84a48.26,48.26,0,0,1-.73-34c4.29-12.07,15.59-20.81,28-23.15Z"/>
   <path class="cls-4" d="M42,540.69c8.65,0,17.31,0,26,0,5.48,19.2,11.4,38.28,16.78,57.51,2-1.37,1.76-4.1,2.58-6.12,5.11-17.15,9.87-34.41,15.19-51.5,8.66.16,17.32,0,26,.07,0,25.56.1,51.11,0,76.67-5.44,0-10.88,0-16.32,0-.09-19.63-.24-39.27.08-58.9l-1,0,0-2.47c-5.1,20.61-11.28,40.94-17,61.36-5.92,0-11.84,0-17.76,0q-9.27-31.19-18-62.54c-.42,20.83,0,41.67-.19,62.51H42c-.08-25.54,0-51.08,0-76.62Z"/>
   <path class="cls-4" d="M146.58,540.71c20.87-.09,41.74,0,62.61-.05,0,4.35,0,8.71,0,13.06-15-.14-30,0-45-.08-.14,5.58,0,11.16-.08,16.75,13.8,0,27.6,0,41.39,0-.07,4.34,0,8.69-.06,13-13.78-.09-27.55,0-41.32,0,.05,6.65-.09,13.31.09,20,15.73,0,31.47-.08,47.2,0-.11,4.64,0,9.29-.09,13.94-21.35,0-42.71-.18-64.06.11a9.23,9.23,0,0,1-.64-3.43q.06-36.66,0-73.31Z"/>
   <path class="cls-4" d="M217.51,540.68q34.32,0,68.62,0c0,4.5,0,9,0,13.52-8.56,0-17.13-.08-25.69.07,0,21,.09,42,0,63.06-5.74,0-11.49,0-17.23,0-.17-21,0-42.08-.08-63.12-8.54,0-17.08,0-25.62,0,0-4.51,0-9,0-13.53Z"/>
   <path class="cls-4" d="M296.45,540.69q22.2,0,44.4,0c6.5.28,13.39,1.41,18.64,5.56,2.78,2.12,4.32,5.37,5.64,8.53.56,3.41,1.33,6.83.94,10.32-1,6.83-5.55,14.31-13.1,14.84l1.76,1.24a12,12,0,0,1,7.69,7.37c2.23,6.9,1.53,14.26,2.06,21.39.26,2.8,3,4.55,3.11,7.39-6.35,0-12.69-.1-19,.08-4.29-7.79-.47-17.2-3.88-25.25-1.62-3.74-6.07-4.69-9.73-4.81-6.92-.09-13.84,0-20.75-.06-.07,9.74,0,19.48,0,29.22l-.86.79c-5.61.11-11.22,0-16.82,0q-.09-38.31,0-76.62Z"/>
   <path class="cls-2" d="M413.7,552.84c8.45-1.59,18.26-.72,24.59,5.73,6.73,6.95,7.5,17.28,6.69,26.43-1.18,6.4-3.94,12.91-9.48,16.72-7.14,5-16.72,4.82-24.81,2.58-8.24-3.32-13.07-11.69-14-20.24a44.82,44.82,0,0,1,2-18.15,21.9,21.9,0,0,1,15.1-13.07Z"/>
   <path class="cls-2" d="M314.21,553.63c7.91.1,15.82,0,23.73,0,4.48,0,9.3,2.7,10.31,7.31.39,3,.56,6.37-1.33,9-2.4,3.6-7.12,4.13-11.08,4.39-7.21.09-14.43,0-21.64,0-.05-6.91-.07-13.83,0-20.75Z"/>
   <path class="cls-4" d="M406.16,635.61c2.14-3.27,4-6.69,6.36-9.82,2.4.05,4.8.05,7.21.07-3.12,3.22-6.06,6.63-9.39,9.62-1.36.39-2.8.08-4.18.13Z"/>
   <path class="cls-4" d="M42.38,639.49q10.27-.06,20.55,0c6.15.16,12.76,2.93,15.58,8.71,2.48,4.5,2.24,9.8,2,14.76a16.85,16.85,0,0,1-10.63,14.21c-3.48,1.48-7.34,1.53-11.07,1.54-5.46,0-10.92,0-16.38,0,0-13.06.06-26.11,0-39.17Z"/>
   <path class="cls-4" d="M88.43,639.5c11-.09,22,0,33,0,0,2.23,0,4.47-.12,6.71-7.89-.18-15.8.28-23.67-.28,0,3,0,5.92,0,8.89,7.21-.14,14.43,0,21.64-.1,0,2.21,0,4.43,0,6.66-7.22-.05-14.44,0-21.67-.06,0,3.42,0,6.86,0,10.29q12.48,0,25,0c0,2.36,0,4.74,0,7.12-11.37-.06-22.73.07-34.1-.07,0-13,0-26.08,0-39.12Z"/>
   <path class="cls-4" d="M148,639.46h13.63c3.07,10.13,6.11,20.27,9.19,30.4,3-10.09,6-20.18,8.91-30.31,4.59-.16,9.19-.08,13.78-.08-.08,13.07,0,26.14,0,39.22-2.77,0-5.54,0-8.31,0-.07-10,0-19.89,0-29.84l-1.27.89c-2.5,9.62-5.75,19-8,28.72a88.62,88.62,0,0,1-9.78.15c-3.2-10.62-6-21.4-9.64-31.87-.21,10.64,0,21.3-.09,32-2.74,0-5.48,0-8.21,0-.23-13.09,0-26.19-.12-39.29Z"/>
   <path class="cls-4" d="M203.27,639.5q16.51-.09,33,0c0,2.2-.05,4.42-.07,6.63-8,0-16,0-24,0q0,4.26,0,8.53c7.35,0,14.7,0,22.05,0,0,2.2,0,4.4,0,6.61-7.38,0-14.75,0-22.12,0q.11,5.1,0,10.22c8.4.05,16.79,0,25.19,0,0,2.37,0,4.73,0,7.11-11.37,0-22.73,0-34.09,0,0-13.06.07-26.11,0-39.16Z"/>
   <path class="cls-4" d="M244.54,639.54c6.78-.15,13.57-.06,20.35-.08,6.37,0,13.4,2.85,16.21,8.94,3,7,3.12,15.55-.76,22.2-3.15,5.41-9.59,8-15.62,8-6.72.09-13.45.1-20.17,0,0-13,.06-26,0-39.05Z"/>
   <path class="cls-4" d="M290.65,639.56c11.14-.18,22.28-.12,33.42,0,0,2.05,0,4.11.1,6.17-8,1-16.06.18-24.08.46q0,4.27,0,8.58c7.14-.07,14.27.13,21.4-.13a21.48,21.48,0,0,1,.56,6.7c-7.33.06-14.66,0-22,0q.1,5.11,0,10.25c8.33,0,16.66-.06,25,.06,0,2.31,0,4.62,0,7-11.49.11-23,.24-34.48-.07.07-1.85.13-3.69.17-5.52-.15-6.66-.1-13.33,0-20-.09-4.49-.05-9-.09-13.45Z"/>
   <path class="cls-4" d="M332.36,639.5q4.61-.07,9.21,0c-.15,10.7,0,21.4-.08,32.1,7.54,0,15.09-.06,22.63,0q0,3.48,0,7c-10.6.16-21.19.08-31.77,0,0-13,.06-26.08,0-39.13Z"/>
   <path class="cls-4" d="M369.05,639.48q4.71,0,9.44,0c-.14,10.69,0,21.38-.09,32.07q11,.06,22.08,0c0,2.38,0,4.77,0,7.16-10.47-.1-20.94,0-31.41-.05,0-13.06.09-26.13-.05-39.19Z"/>
   <path class="cls-4" d="M406.22,639.49q4.68-.06,9.37,0c-.1,13.07,0,26.14,0,39.21l-9.3,0c0-13.06.08-26.11,0-39.17Z"/>
   <path class="cls-4" d="M425.4,639.49c3.26,0,6.52,0,9.79,0,5.83,8.68,12,17.18,17.5,26l1.44.27c-.18-8.76,0-17.53-.12-26.29l8.79,0c.19,13.07,0,26.14.09,39.21a69.08,69.08,0,0,1-10-.27c-3.78-6.28-8.19-12.15-12.23-18.25-2.09-2.78-3.61-6-6.17-8.4-.07,9,0,18,0,27-3,0-6.05,0-9.06-.06,0-13.06.05-26.11,0-39.16Z"/>
   <path class="cls-2" d="M51.34,646.14c5.58.47,12.23-1.49,16.87,2.56,3.49,3.48,3.43,8.81,3.11,13.39-.14,4.3-3.09,8.63-7.52,9.36-4.13.54-8.32.2-12.47.28,0-8.53,0-17.06,0-25.59Z"/>
   <path class="cls-2" d="M253.72,646.15c5.21.32,10.89-1,15.7,1.57,4.86,3.31,4.88,10.1,4.14,15.33a9,9,0,0,1-7.71,8.46c-4,.44-8.09.14-12.13.22V646.15Z"/>
   <path class="cls-2" d="M32.39,769.5l7.86,3.67q-1.8,9.68-6,14.37a13.66,13.66,0,0,1-10.67,4.7q-8,0-13.15-8t-5.15-22q0-14.76,5.18-22.93t13.61-8.16q7.38,0,12,6.41,2.74,3.78,4.11,10.89l-8,2.82a14.47,14.47,0,0,0-3-7.26,7,7,0,0,0-5.5-2.66c-3,0-5.39,1.57-7.24,4.72s-2.78,8.24-2.78,15.28q0,11.21,2.74,16c1.82,3.17,4.2,4.76,7.12,4.76a6.86,6.86,0,0,0,5.56-3Q31.38,776,32.39,769.5Z"/>
   <path class="cls-2" d="M83.42,791.23H74.6L71.1,777.8H55l-3.31,13.43h-8.6l15.64-59.12h8.57ZM68.49,767.84,63,745.9l-5.42,21.94Z"/>
   <path class="cls-2" d="M87.94,791.23V732.6h8.11v48.67h20.16v10Z"/>
   <path class="cls-2" d="M121.74,791.23V732.11h8.11v59.12Z"/>
   <path class="cls-2" d="M137.55,732.11h14.82a20.18,20.18,0,0,1,7.64,1.13,13.83,13.83,0,0,1,6.05,5.45,30.21,30.21,0,0,1,3.84,9.57,63.47,63.47,0,0,1,1.31,14A56.13,56.13,0,0,1,170,774.82a30,30,0,0,1-4.3,10.44A14.17,14.17,0,0,1,160,790a17.1,17.1,0,0,1-7.18,1.25H137.55Zm8.11,10v39.16h6.05a15.44,15.44,0,0,0,4.9-.56,7.09,7.09,0,0,0,3.27-2.46,14.87,14.87,0,0,0,2.13-5.71,55.89,55.89,0,0,0,.82-10.83,51.06,51.06,0,0,0-.82-10.52,15.85,15.85,0,0,0-2.3-5.73,7.26,7.26,0,0,0-3.76-2.78,25.07,25.07,0,0,0-6.65-.56h-3.64Z"/>
   <path class="cls-2" d="M214.3,791.23h-8.82L202,777.8H185.92l-3.31,13.43H174l15.64-59.12h8.57Zm-14.93-23.39-5.53-21.94-5.43,21.94Z"/>
   <path class="cls-2" d="M218.57,732.11h14.82a20.18,20.18,0,0,1,7.64,1.13,13.8,13.8,0,0,1,6.06,5.45,30,30,0,0,1,3.83,9.57,62.8,62.8,0,0,1,1.32,14A55.51,55.51,0,0,1,251,774.82a29.82,29.82,0,0,1-4.3,10.44A14.07,14.07,0,0,1,241,790a17.14,17.14,0,0,1-7.18,1.25H218.57V732.11Zm8.11,10v39.16h6a15.51,15.51,0,0,0,4.91-.56,7.2,7.2,0,0,0,3.27-2.46,14.89,14.89,0,0,0,2.12-5.71,55.89,55.89,0,0,0,.82-10.83,51.06,51.06,0,0,0-.82-10.52,15.67,15.67,0,0,0-2.3-5.73,7.24,7.24,0,0,0-3.75-2.78,25.11,25.11,0,0,0-6.66-.56h-3.64Z"/>
   <path class="cls-2" d="M274.67,732.11h14.82a20.18,20.18,0,0,1,7.64,1.13,13.78,13.78,0,0,1,6.05,5.45,30,30,0,0,1,3.84,9.57,62.86,62.86,0,0,1,1.31,14,56.13,56.13,0,0,1-1.23,12.58,30,30,0,0,1-4.3,10.44,14,14,0,0,1-5.7,4.72,17.09,17.09,0,0,1-7.17,1.25H274.67V732.11Zm8.11,10v39.16h6.05a15.51,15.51,0,0,0,4.91-.56,7.2,7.2,0,0,0,3.27-2.46,15.06,15.06,0,0,0,2.12-5.71,55.89,55.89,0,0,0,.82-10.83,51.06,51.06,0,0,0-.82-10.52,15.67,15.67,0,0,0-2.3-5.73,7.28,7.28,0,0,0-3.75-2.78,25.17,25.17,0,0,0-6.66-.56h-3.64Z"/>
   <path class="cls-2" d="M315.21,791.23V732.11H345v10H323.32v13.11h20.16v10H323.32v16.09h22.43v10Z"/>
   <path class="cls-2" d="M378.46,791.23,364.1,732.11h8.8l10.16,43.76,9.83-43.76h8.6l-14.38,59.12Z"/>
   <path class="cls-2" d="M405.38,791.23V732.11h8.11v59.12Z"/>
   <path class="cls-2" d="M421.19,732.11H436a20.18,20.18,0,0,1,7.64,1.13,13.78,13.78,0,0,1,6.05,5.45,30.21,30.21,0,0,1,3.84,9.57,62.86,62.86,0,0,1,1.31,14,56.13,56.13,0,0,1-1.23,12.58,30,30,0,0,1-4.3,10.44,14.17,14.17,0,0,1-5.7,4.72,17.09,17.09,0,0,1-7.17,1.25H421.19V732.11Zm8.11,10v39.16h6.05a15.44,15.44,0,0,0,4.9-.56,7.17,7.17,0,0,0,3.28-2.46,15.06,15.06,0,0,0,2.12-5.71,55.89,55.89,0,0,0,.82-10.83,51.06,51.06,0,0,0-.82-10.52,15.85,15.85,0,0,0-2.3-5.73,7.26,7.26,0,0,0-3.76-2.78,25.07,25.07,0,0,0-6.65-.56H429.3Z"/>
   <path class="cls-2" d="M497.94,791.23h-8.82l-3.51-13.43H469.56l-3.31,13.43h-8.6l15.64-59.12h8.57ZM483,767.84l-5.53-21.94-5.42,21.94Z"/>
  </g>
 </g>
</svg>
